<svg width="80" height="80" viewBox="0 0 80 80" fill="none" xmlns="http://www.w3.org/2000/svg">
<rect width="80" height="80" rx="40" fill="white"/>
<g clip-path="url(#clip0_490_11586)">
<path d="M43.8256 22.4147L45.6745 17.9436C45.8539 17.5098 45.805 17.0149 45.544 16.6246C45.283 16.2344 44.8444 16 44.3749 16H35.6251C35.1556 16 34.717 16.2344 34.456 16.6247C34.1951 17.015 34.1461 17.5098 34.3255 17.9437L36.1744 22.4148C26.4214 24.2129 19.0327 32.7594 19.0327 43.0327C19.0327 54.6126 28.4201 64 40 64C51.5799 64 60.9673 54.6126 60.9673 43.0327C60.9673 32.7594 53.5786 24.2129 43.8256 22.4147ZM56.1824 34.8082L42.5985 40.4347L48.2253 26.8508C51.643 28.595 54.4382 31.3905 56.1824 34.8082ZM42.2717 18.8125L40.0026 24.2995L37.7297 18.8125H42.2717ZM37.2779 25.083L38.7004 28.523C38.9211 29.0566 39.4403 29.392 39.9999 29.3921C40.5596 29.3921 41.0788 29.0566 41.2994 28.523L42.7219 25.083C43.7191 25.2339 44.6902 25.4655 45.6278 25.7719L40 39.3585L34.3721 25.7719C35.3097 25.4655 36.2807 25.234 37.2779 25.083ZM31.7747 26.8507L37.4015 40.4346L23.8176 34.8082C25.5617 31.3905 28.357 28.595 31.7747 26.8507ZM21.8452 43.0327C21.8452 41.0693 22.1597 39.1782 22.739 37.4058L36.3252 43.0332L22.7392 48.6604C22.1598 46.8877 21.8452 44.9964 21.8452 43.0327ZM23.818 51.2578L37.4015 45.6315L31.7749 59.2147C28.3574 57.4706 25.5621 54.6753 23.818 51.2578ZM40 61.1875C38.0363 61.1875 36.145 60.8729 34.3723 60.2935L40 46.7077L45.6277 60.2935C43.855 60.8729 41.9637 61.1875 40 61.1875ZM48.2251 59.2147L42.5985 45.6316L56.182 51.2579C54.4379 54.6753 51.6426 57.4706 48.2251 59.2147ZM43.6748 43.0331L57.261 37.4057C57.8402 39.1781 58.1548 41.0692 58.1548 43.0326C58.1548 44.9963 57.8402 46.8876 57.2608 48.6603L43.6748 43.0331Z" fill="#00AA81"/>
</g>
<defs>
<clipPath id="clip0_490_11586">
<rect width="48" height="48" fill="white" transform="translate(16 16)"/>
</clipPath>
</defs>
</svg>
