<svg width="60" height="60" viewBox="0 0 60 60" fill="none" xmlns="http://www.w3.org/2000/svg">
<g filter="url(#filter0_d_490_11495)">
<rect x="10" y="6" width="40" height="40" rx="20" fill="white" shape-rendering="crispEdges"/>
<rect x="10" y="6" width="40" height="40" rx="20" fill="white" shape-rendering="crispEdges"/>
<path d="M22.4735 33C22.0217 33 21.5785 32.8832 21.192 32.6623C20.8055 32.4414 20.4906 32.1248 20.2813 31.7469C20.072 31.369 19.9764 30.9443 20.0049 30.5187C20.0334 30.0932 20.1849 29.6831 20.4429 29.333L26.9553 20.5006C27.297 20.0374 27.7524 19.659 28.2825 19.3977C28.8127 19.1365 29.4019 19 30 19C30.5981 19 31.1873 19.1365 31.7175 19.3977C32.2476 19.659 32.703 20.0374 33.0447 20.5006L39.5571 29.333C39.8151 29.6831 39.9666 30.0932 39.9951 30.5187C40.0236 30.9443 39.928 31.369 39.7187 31.7469C39.5094 32.1248 39.1945 32.4414 38.808 32.6623C38.4215 32.8832 37.9783 33 37.5265 33H22.4735Z" fill="#FF6B00"/>
</g>
<defs>
<filter id="filter0_d_490_11495" x="0" y="0" width="60" height="60" filterUnits="userSpaceOnUse" color-interpolation-filters="sRGB">
<feFlood flood-opacity="0" result="BackgroundImageFix"/>
<feColorMatrix in="SourceAlpha" type="matrix" values="0 0 0 0 0 0 0 0 0 0 0 0 0 0 0 0 0 0 127 0" result="hardAlpha"/>
<feOffset dy="4"/>
<feGaussianBlur stdDeviation="5"/>
<feComposite in2="hardAlpha" operator="out"/>
<feColorMatrix type="matrix" values="0 0 0 0 0 0 0 0 0 0 0 0 0 0 0 0 0 0 0.25 0"/>
<feBlend mode="normal" in2="BackgroundImageFix" result="effect1_dropShadow_490_11495"/>
<feBlend mode="normal" in="SourceGraphic" in2="effect1_dropShadow_490_11495" result="shape"/>
</filter>
</defs>
</svg>
