<svg width="24" height="24" viewBox="0 0 24 24" fill="none" xmlns="http://www.w3.org/2000/svg">
<g clip-path="url(#clip0_490_11292)">
<path d="M21.0375 3.00952C19.8193 3.00952 18.8281 4.00064 18.8281 5.21887C18.8281 6.1913 19.4599 7.01845 20.3344 7.31287V13.5563H17.2219V3.71227C17.2219 1.6635 15.5551 0 13.5062 0H4.46874C2.41992 0 0.753143 1.6635 0.753143 3.71227V23.2969C0.753143 23.6852 1.06796 24 1.45627 24H16.5188C16.9071 24 17.2219 23.6852 17.2219 23.2969V17.975H21.0375C21.4258 17.975 21.7406 17.6602 21.7406 17.2719V7.31287C22.6151 7.01845 23.2469 6.1913 23.2469 5.21887C23.2469 4.00064 22.2557 3.00952 21.0375 3.00952ZM4.46874 1.40625H13.5062C14.5341 1.40625 15.407 2.08045 15.7055 3.00914H2.26955C2.56805 2.08045 3.44086 1.40625 4.46874 1.40625ZM15.8156 22.5938H2.15939V17.975H3.76566V20.2844C3.76566 20.6727 4.08047 20.9875 4.46878 20.9875H13.5063C13.8946 20.9875 14.2094 20.6727 14.2094 20.2844V17.975H15.8156V22.5938ZM5.17186 19.5812V17.975H12.8031V19.5812H5.17186ZM15.8156 16.5688H2.15939V14.9625H15.8156V16.5688ZM15.8156 13.5563H2.15939V4.41539H15.8156V13.5563ZM20.3344 16.5688H17.2219V14.9625H20.3344V16.5688ZM21.0375 6.02198C20.5947 6.02198 20.2344 5.6617 20.2344 5.21887C20.2344 4.77605 20.5947 4.41577 21.0375 4.41577C21.4803 4.41577 21.8406 4.77605 21.8406 5.21887C21.8406 5.6617 21.4803 6.02198 21.0375 6.02198Z" fill="#445058"/>
<path d="M4.46875 11.95H13.5062C13.8946 11.95 14.2094 11.6352 14.2094 11.2469V6.72811C14.2094 6.3398 13.8946 6.02499 13.5062 6.02499H4.46875C4.08044 6.02499 3.76562 6.3398 3.76562 6.72811V11.2469C3.76562 11.6352 4.08044 11.95 4.46875 11.95ZM11.1969 7.43124H12.8032V10.5437H11.1969V7.43124ZM8.18439 7.43124H9.79066V10.5437H8.18439V7.43124ZM5.17188 7.43124H6.77814V10.5437H5.17188V7.43124Z" fill="#445058"/>
</g>
<defs>
<clipPath id="clip0_490_11292">
<rect width="24" height="24" fill="white"/>
</clipPath>
</defs>
</svg>
