<svg width="24" height="24" viewBox="0 0 24 24" fill="none" xmlns="http://www.w3.org/2000/svg">
<g clip-path="url(#clip0_490_11288)">
<path d="M19.4813 13.6037V10.9883C19.4813 7.85245 18.1622 5.12213 16.2713 3.22725L15.3723 2.32809C13.8711 0.826828 11.8751 0 9.75155 0C7.64344 0 5.58394 0.858844 4.10114 2.35622L3.216 3.24966C2.94239 3.52603 2.94548 3.97139 3.22087 4.24402L4.10086 5.11561C5.60859 6.60886 7.60748 7.43123 9.7297 7.43123C11.6442 7.43123 13.4557 6.76303 14.8989 5.53772C14.6793 6.74911 14.0438 8.96189 12.0733 10.9321L8.38163 14.6237C7.50375 13.9544 6.40852 13.5563 5.22188 13.5563C2.34253 13.5563 0 15.8988 0 18.7781C0 21.6575 2.34253 24 5.22188 24C8.10122 24 10.4437 21.6575 10.4437 18.7781C10.4437 17.5914 10.0455 16.4961 9.37603 15.6181L13.0676 11.9265C15.5487 9.44569 16.1577 6.636 16.3348 5.48077C17.0097 6.44128 18.0749 8.35045 18.0749 10.9883V13.6038C15.527 13.9482 13.5563 16.1372 13.5563 18.7781C13.5563 21.6575 15.8988 24 18.7781 24C21.6575 24 24 21.6575 24 18.7781C24 16.1372 22.0293 13.9482 19.4813 13.6037ZM14.3937 4.09317C13.1479 5.33892 11.4915 6.02498 9.72928 6.02498C7.98052 6.02498 6.33309 5.34717 5.09048 4.11647L4.71 3.73969L5.10014 3.34589C6.32086 2.11322 8.01623 1.40625 9.75192 1.40625C11.4995 1.40625 13.1423 2.08678 14.3779 3.32255L14.7712 3.71573L14.3937 4.09317ZM5.22188 22.5938C3.11794 22.5938 1.40625 20.8821 1.40625 18.7781C1.40625 16.6742 3.11794 14.9625 5.22188 14.9625C7.32581 14.9625 9.03745 16.6742 9.03745 18.7781C9.0375 20.8821 7.32581 22.5938 5.22188 22.5938ZM18.7781 22.5938C16.6742 22.5938 14.9625 20.8821 14.9625 18.7781C14.9625 16.6742 16.6742 14.9625 18.7781 14.9625C20.8821 14.9625 22.5938 16.6742 22.5938 18.7781C22.5938 20.8821 20.8821 22.5938 18.7781 22.5938Z" fill="#445058"/>
</g>
<defs>
<clipPath id="clip0_490_11288">
<rect width="24" height="24" fill="white"/>
</clipPath>
</defs>
</svg>
