<svg width="24" height="24" viewBox="0 0 24 24" fill="none" xmlns="http://www.w3.org/2000/svg">
<g clip-path="url(#clip0_490_11298)">
<path d="M16.8953 0H7.10471C5.47117 0 4.14221 1.329 4.14221 2.9625V21.0375C4.14221 22.671 5.47121 24 7.10471 24H16.8953C18.5289 24 19.8578 22.671 19.8578 21.0375V2.9625C19.8578 1.329 18.5289 0 16.8953 0ZM18.4516 21.0375C18.4516 21.8956 17.7534 22.5938 16.8953 22.5938H7.10471C6.24657 22.5938 5.54846 21.8956 5.54846 21.0375V2.9625C5.54846 2.10436 6.24662 1.40625 7.10471 1.40625H16.8953C17.7534 1.40625 18.4516 2.10441 18.4516 2.9625V21.0375Z" fill="#445058"/>
<path d="M16.1422 6.77813H7.85779C7.46948 6.77813 7.15466 7.09294 7.15466 7.48125V18.025C7.15466 18.4133 7.46948 18.7282 7.85779 18.7282H16.1421C16.5305 18.7282 16.8453 18.4133 16.8453 18.025V7.48125C16.8453 7.09289 16.5305 6.77813 16.1422 6.77813ZM15.4391 17.3219H8.56091V8.18438H15.439V17.3219H15.4391Z" fill="#445058"/>
<path d="M11.4598 15.4626C11.5934 15.6229 11.7913 15.7156 12 15.7156C12.2086 15.7156 12.4065 15.6229 12.5401 15.4626L14.4229 13.2032C14.6402 12.9425 14.6402 12.5637 14.4229 12.303L12.5401 10.0436C12.4065 9.88331 12.2086 9.79064 12 9.79064C11.7913 9.79064 11.5934 9.88336 11.4598 10.0436L9.57701 12.303C9.35975 12.5637 9.35975 12.9425 9.57701 13.2032L11.4598 15.4626ZM12 11.592L12.9675 12.7531L12 13.9142L11.0324 12.7531L12 11.592Z" fill="#445058"/>
<path d="M10.1172 4.41877H13.8828C14.2711 4.41877 14.5859 4.10395 14.5859 3.71564C14.5859 3.32733 14.2711 3.01252 13.8828 3.01252H10.1172C9.72887 3.01252 9.41406 3.32733 9.41406 3.71564C9.41406 4.10395 9.72887 4.41877 10.1172 4.41877Z" fill="#445058"/>
</g>
<defs>
<clipPath id="clip0_490_11298">
<rect width="24" height="24" fill="white"/>
</clipPath>
</defs>
</svg>
